<svg width="20" height="20" viewBox="0 0 20 20" fill="none" xmlns="http://www.w3.org/2000/svg">
<path d="M8.40831 8.98859C8.74194 8.98859 9.06808 8.88966 9.34549 8.7043C9.62289 8.51894 9.8391 8.25549 9.96678 7.94725C10.0945 7.63902 10.1279 7.29984 10.0628 6.97262C9.99768 6.6454 9.83703 6.34483 9.60111 6.10891C9.3652 5.873 9.06463 5.71234 8.7374 5.64725C8.41018 5.58216 8.07101 5.61557 7.76277 5.74324C7.45454 5.87092 7.19108 6.08713 7.00573 6.36454C6.82037 6.64194 6.72144 6.96808 6.72144 7.30171C6.72194 7.74894 6.89983 8.17771 7.21607 8.49395C7.53231 8.8102 7.96108 8.98808 8.40831 8.98859ZM8.40831 6.23984C8.61833 6.23984 8.82363 6.30212 8.99826 6.4188C9.17288 6.53548 9.30898 6.70132 9.38936 6.89535C9.46973 7.08938 9.49076 7.30289 9.44978 7.50888C9.40881 7.71486 9.30768 7.90407 9.15917 8.05257C9.01066 8.20108 8.82146 8.30221 8.61547 8.34318C8.40949 8.38416 8.19598 8.36313 8.00195 8.28276C7.80792 8.20239 7.64207 8.06628 7.52539 7.89166C7.40871 7.71704 7.34644 7.51173 7.34644 7.30171C7.34676 7.02018 7.45873 6.75028 7.65781 6.55121C7.85688 6.35214 8.12678 6.24016 8.40831 6.23984V6.23984Z" fill="#777777"/>
<path d="M17.7344 13.2031H16.3672V11.8359C16.3672 11.7531 16.3343 11.6736 16.2757 11.615C16.2171 11.5564 16.1376 11.5234 16.0547 11.5234C15.9718 11.5234 15.8923 11.5564 15.8337 11.615C15.7751 11.6736 15.7422 11.7531 15.7422 11.8359V13.2031H14.4141C14.3312 13.2031 14.2517 13.236 14.1931 13.2947C14.1345 13.3533 14.1016 13.4327 14.1016 13.5156C14.1016 13.5985 14.1345 13.678 14.1931 13.7366C14.2517 13.7952 14.3312 13.8281 14.4141 13.8281H15.7422V15.1562C15.7422 15.2391 15.7751 15.3186 15.8337 15.3772C15.8923 15.4358 15.9718 15.4688 16.0547 15.4688C16.1376 15.4688 16.2171 15.4358 16.2757 15.3772C16.3343 15.3186 16.3672 15.2391 16.3672 15.1562V13.8281H17.7344C17.8173 13.8281 17.8967 13.7952 17.9553 13.7366C18.014 13.678 18.0469 13.5985 18.0469 13.5156C18.0469 13.4327 18.014 13.3533 17.9553 13.2947C17.8967 13.236 17.8173 13.2031 17.7344 13.2031Z" fill="#777777"/>
<path d="M18.4375 10.6691V4.75484C18.4375 3.72093 17.5863 2.89062 16.5524 2.89062H2.13879C1.89372 2.88987 1.65091 2.93757 1.42433 3.03098C1.19776 3.12439 0.991875 3.26166 0.818527 3.4349C0.645179 3.60814 0.507783 3.81394 0.414238 4.04046C0.320693 4.26698 0.272845 4.50976 0.273443 4.75484V14.173C0.273443 15.207 1.10493 16.0547 2.13879 16.0547H13.5015C14.0129 16.5653 14.6642 16.913 15.3731 17.0537C16.082 17.1944 16.8167 17.1219 17.4844 16.8453C18.1521 16.5687 18.7228 16.1004 19.1245 15.4996C19.5262 14.8988 19.7408 14.1924 19.7413 13.4697C19.7413 12.347 19.2188 11.3396 18.4375 10.6691ZM2.13879 3.51562H16.5524C17.2416 3.51562 17.8125 4.06558 17.8125 4.75484V10.2461C17.2825 9.96237 16.6903 9.81452 16.0891 9.81577C15.9526 9.81582 15.8162 9.8234 15.6805 9.83847L13.0625 7.9848C13.0026 7.9424 12.9297 7.9224 12.8565 7.92827C12.7833 7.93413 12.7146 7.96551 12.6622 8.01691L9.13387 11.4844L5.03321 9.48593C4.98796 9.46348 4.93781 9.45269 4.88733 9.45454C4.83685 9.45639 4.78764 9.47082 4.74415 9.49651L0.898443 11.7298V4.75484C0.897755 4.59181 0.929375 4.43027 0.991479 4.27953C1.05358 4.1288 1.14494 3.99186 1.26027 3.87664C1.3756 3.76142 1.51262 3.67019 1.66341 3.60822C1.8142 3.54625 1.97577 3.51478 2.13879 3.51562V3.51562ZM0.898443 14.173V12.4524L4.91372 10.1207L8.66305 11.9525L5.12622 15.4297H2.13879C1.8077 15.4274 1.49106 15.2938 1.25847 15.0581C1.02588 14.8225 0.896385 14.5041 0.898443 14.173V14.173ZM6.01786 15.4297L12.9132 8.64921L14.862 10.0281C14.1514 10.2819 13.5366 10.7489 13.1016 11.3654C12.6666 11.9819 12.4327 12.7178 12.4319 13.4723C12.4319 14.191 12.6406 14.8438 13.0005 15.4298L6.01786 15.4297ZM16.084 16.4951C15.4853 16.4951 14.9 16.3176 14.4021 15.9849C13.9043 15.6523 13.5162 15.1795 13.2871 14.6263C13.058 14.0731 12.998 13.4644 13.1149 12.8771C13.2317 12.2899 13.52 11.7505 13.9434 11.3271C14.3668 10.9037 14.9063 10.6154 15.4935 10.4986C16.0808 10.3818 16.6895 10.4418 17.2427 10.671C17.7959 10.9001 18.2686 11.2882 18.6013 11.786C18.9339 12.2839 19.1114 12.8692 19.1114 13.468C19.1105 14.2706 18.7912 15.0401 18.2237 15.6076C17.6561 16.1751 16.8866 16.4943 16.084 16.4951V16.4951Z" fill="#777777"/>
</svg>
