<svg width="20" height="20" viewBox="0 0 20 20" fill="none" xmlns="http://www.w3.org/2000/svg">
<path d="M1.66659 20H6.33325C6.51733 20 6.66658 19.8507 6.66658 19.6667V19.3333H15.6666C15.755 19.3333 15.8398 19.2982 15.9023 19.2357L18.2932 16.8447C18.5364 16.6009 18.671 16.2694 18.6666 15.925C18.6594 15.4123 18.3461 14.9536 17.871 14.7606C17.3959 14.5674 16.8515 14.6774 16.4885 15.0397L15.3333 16.1953V2H15.6666C15.8507 2 15.9999 1.85075 15.9999 1.66667V0.333333C15.9999 0.149251 15.8507 0 15.6666 0H6.99992C6.81584 0 6.66658 0.149251 6.66658 0.333333V1.66667C6.66658 1.85075 6.81584 2 6.99992 2H7.33325V15.6667H6.66658V15C6.66658 14.8159 6.51733 14.6667 6.33325 14.6667H1.66659C1.4825 14.6667 1.33325 14.8159 1.33325 15V19.6667C1.33325 19.8507 1.4825 20 1.66659 20ZM7.33325 0.666667H15.3333V1.33333H7.33325V0.666667ZM13.9999 13C13.9993 12.96 13.9913 12.9202 13.9763 12.883C13.9711 12.8716 13.9653 12.8604 13.9586 12.8496C13.9469 12.8257 13.9322 12.8032 13.915 12.783C13.9052 12.772 13.8946 12.7617 13.8835 12.752C13.8764 12.744 13.8687 12.7365 13.8606 12.7293L11.5273 11.0627C11.4114 10.98 11.2558 10.98 11.1399 11.0627L8.80656 12.7293C8.79858 12.7365 8.79077 12.744 8.78361 12.752C8.77254 12.7617 8.76196 12.772 8.7522 12.783C8.73494 12.8032 8.7203 12.8257 8.70858 12.8496C8.7019 12.8604 8.69604 12.8716 8.691 12.883C8.6757 12.9202 8.6674 12.9598 8.66658 13V15.6667H7.99992V2H14.6666V16.6667H13.9999V13ZM11.3909 14C11.0522 13.999 10.7273 14.1338 10.4885 14.374L9.33325 15.5286V13.3333H13.3333V16.6667H11.8046L12.2929 16.1784C12.658 15.8135 12.7672 15.2645 12.5696 14.7876C12.372 14.3109 11.9067 14 11.3905 14H11.3909ZM10.04 12.6667L11.3333 11.743L12.6265 12.6667H10.04ZM6.66658 16.3333H9.33325C9.42163 16.3333 9.50643 16.2982 9.56893 16.2357L10.9596 14.8451C11.134 14.6709 11.3961 14.619 11.6238 14.7134C11.8515 14.8078 11.9999 15.0299 11.9999 15.2764C12.0002 15.438 11.9361 15.5933 11.8215 15.7074L10.7642 16.7643C10.669 16.8597 10.6404 17.0031 10.692 17.1276C10.7436 17.2521 10.8652 17.3333 10.9999 17.3333H14.9999C15.0883 17.3333 15.1731 17.2982 15.2356 17.2357L16.9602 15.5107C17.0795 15.3934 17.2411 15.3294 17.4083 15.3333C17.568 15.3345 17.7206 15.3997 17.8318 15.5145C17.943 15.6291 18.0037 15.7837 17.9999 15.9434C18.0004 16.1047 17.9363 16.2596 17.8219 16.3734L15.5286 18.6667H6.66658V16.3333ZM1.99992 15.3333H5.99992V19.3333H1.99992V15.3333Z" fill="#777777"/>
<path d="M8.66675 6.66666H10.0001V7.33332H8.66675V6.66666Z" fill="#777777"/>
<path d="M10.6667 6.66666H12.0001V7.33332H10.6667V6.66666Z" fill="#777777"/>
<path d="M12.6667 6.66666H14.0001V7.33332H12.6667V6.66666Z" fill="#777777"/>
<path d="M8.66675 8H10.0001V8.66667H8.66675V8Z" fill="#777777"/>
<path d="M10.6667 8H12.0001V8.66667H10.6667V8Z" fill="#777777"/>
<path d="M12.6667 8H14.0001V8.66667H12.6667V8Z" fill="#777777"/>
<path d="M8.66675 9.33334H10.0001V10H8.66675V9.33334Z" fill="#777777"/>
<path d="M10.6667 9.33334H12.0001V10H10.6667V9.33334Z" fill="#777777"/>
<path d="M12.6667 9.33334H14.0001V10H12.6667V9.33334Z" fill="#777777"/>
<path d="M8.66675 2.66666H10.0001V3.33332H8.66675V2.66666Z" fill="#777777"/>
<path d="M10.6667 2.66666H12.0001V3.33332H10.6667V2.66666Z" fill="#777777"/>
<path d="M12.6667 2.66666H14.0001V3.33332H12.6667V2.66666Z" fill="#777777"/>
<path d="M8.66675 4H10.0001V4.66667H8.66675V4Z" fill="#777777"/>
<path d="M10.6667 4H12.0001V4.66667H10.6667V4Z" fill="#777777"/>
<path d="M12.6667 4H14.0001V4.66667H12.6667V4Z" fill="#777777"/>
<path d="M8.66675 5.33334H10.0001V6.00001H8.66675V5.33334Z" fill="#777777"/>
<path d="M10.6667 5.33334H12.0001V6.00001H10.6667V5.33334Z" fill="#777777"/>
<path d="M12.6667 5.33334H14.0001V6.00001H12.6667V5.33334Z" fill="#777777"/>
<path d="M4.76343 18.0967C4.70191 18.1602 4.66724 18.245 4.66675 18.3333C4.66594 18.4688 4.74716 18.5912 4.87232 18.6431C4.99732 18.695 5.14136 18.6662 5.23674 18.57C5.25009 18.5534 5.26343 18.5366 5.27678 18.5166C5.2898 18.4995 5.30006 18.4805 5.30673 18.46C5.31649 18.4413 5.323 18.4209 5.32642 18.4001C5.33049 18.3779 5.33293 18.3556 5.33342 18.3333C5.33423 18.1979 5.25302 18.0755 5.12785 18.0236C5.00285 17.9717 4.85881 18.0005 4.76343 18.0967Z" fill="#777777"/>
<path d="M8.66675 10.6667H10.0001V11.3333H8.66675V10.6667Z" fill="#777777"/>
<path d="M12.6667 10.6667H14.0001V11.3333H12.6667V10.6667Z" fill="#777777"/>
</svg>
