<svg width="20" height="20" viewBox="0 0 20 20" fill="none" xmlns="http://www.w3.org/2000/svg">
<g clip-path="url(#clip0)">
<path d="M15.6199 0.0413208C13.2008 0.0413208 11.2397 2.00236 11.2397 4.42149C11.2397 6.84062 13.2008 8.80165 15.6199 8.80165C18.039 8.80165 20.0001 6.84062 20.0001 4.42149C19.9973 2.00349 18.0379 0.0440649 15.6199 0.0413208ZM15.6199 8.30578C13.4747 8.30578 11.7356 6.5667 11.7356 4.42149C11.7356 2.27628 13.4747 0.537189 15.6199 0.537189C17.7651 0.537189 19.5042 2.27628 19.5042 4.42149C19.5018 6.56573 17.7642 8.30336 15.6199 8.30578Z" fill="#777777"/>
<path d="M14.508 11.0805C13.6285 10.7288 12.4645 10.5351 11.2301 10.5351C10.6529 10.5338 10.0765 10.5785 9.50623 10.6686V3.9395C9.50623 3.34985 8.98228 2.8154 8.03106 2.43495C7.1515 2.08306 5.98754 1.88953 4.75336 1.88953C3.51901 1.88953 2.35489 2.08306 1.47517 2.43495C0.523954 2.81557 0 3.34985 0 3.9395V14.7521C0 15.3417 0.523954 15.876 1.47517 16.2565C2.35473 16.6083 3.51869 16.802 4.75287 16.802C5.33026 16.8035 5.90683 16.7588 6.47695 16.6682V17.9913C6.47695 18.5808 7.0009 19.1153 7.95212 19.4957C8.83168 19.8476 9.99564 20.0412 11.2298 20.0412C12.464 20.0412 13.6281 19.8475 14.5077 19.4957C15.4591 19.1153 15.9829 18.5808 15.9829 17.9913V12.5851C15.9835 11.9954 15.4594 11.4611 14.508 11.0805V11.0805ZM4.75303 2.38523C7.26191 2.38523 9.01036 3.20442 9.01036 3.9395C9.01036 4.67442 7.26191 5.49361 4.75303 5.49361C2.24416 5.49361 0.495868 4.67442 0.495868 3.9395C0.495868 3.20442 2.24432 2.38523 4.75303 2.38523ZM0.495868 4.87781C0.738959 5.08958 1.06776 5.28086 1.47517 5.44389C2.35473 5.79578 3.51869 5.98947 4.75287 5.98947C5.98705 5.98947 7.15118 5.79578 8.03073 5.44389C8.43831 5.28102 8.76711 5.08958 9.01004 4.87781V5.74154C9.01004 6.47663 7.26159 7.29565 4.75271 7.29565C2.24383 7.29565 0.495868 6.47663 0.495868 5.74154V4.87781ZM0.495868 6.67985C0.738959 6.89162 1.06776 7.0829 1.47517 7.24609C2.35473 7.59782 3.51869 7.79151 4.75287 7.79151C5.98705 7.79151 7.15118 7.59765 8.03073 7.24609C8.43831 7.0829 8.76711 6.89162 9.01004 6.67985V7.54358C9.01004 8.27867 7.26159 9.09769 4.75271 9.09769C2.24383 9.09769 0.495868 8.27867 0.495868 7.54358V6.67985ZM0.495868 8.48205C0.738959 8.69366 1.06776 8.8851 1.47517 9.04813C2.35473 9.39986 3.51869 9.59355 4.75287 9.59355C5.98705 9.59355 7.15118 9.39986 8.03073 9.04813C8.43831 8.8851 8.76711 8.69383 9.01004 8.48205V9.34562C9.01004 10.0807 7.26159 10.8997 4.75271 10.8997C2.24383 10.8997 0.495868 10.0807 0.495868 9.34562V8.48205ZM6.47711 16.1657C5.90748 16.261 5.33074 16.3079 4.75303 16.3062C2.24432 16.306 0.495868 15.487 0.495868 14.7521V13.8885C0.738959 14.1001 1.06776 14.2915 1.47517 14.4546C2.35473 14.8063 3.51869 15 4.75287 15C5.33026 15.0015 5.90683 14.9567 6.47695 14.8662L6.47711 16.1657ZM6.47711 14.3635C5.90748 14.4588 5.33074 14.5059 4.75303 14.504C2.24432 14.5041 0.495868 13.6849 0.495868 12.9499V12.0861C0.738959 12.2979 1.06776 12.4892 1.47517 12.6522C2.35473 13.0041 3.51869 13.1978 4.75287 13.1978C5.33026 13.1992 5.90683 13.1544 6.47695 13.0638L6.47711 14.3635ZM6.47776 12.5613C5.9078 12.6567 5.3309 12.7037 4.75303 12.7019C2.24432 12.7019 0.495868 11.8827 0.495868 11.1477V10.2841C0.738959 10.4957 1.06776 10.6871 1.47517 10.8502C2.35473 11.2021 3.51869 11.3956 4.75287 11.3956C5.98705 11.3956 7.15118 11.2019 8.03073 10.8502C8.43831 10.6871 8.76711 10.4959 9.01004 10.2841V10.7625C8.64944 10.8397 8.29562 10.9462 7.95212 11.0807C7.01382 11.4561 6.4918 11.9812 6.47776 12.5613V12.5613ZM15.4876 17.9913C15.4876 18.7264 13.7392 19.5455 11.2303 19.5455C8.72143 19.5455 6.97298 18.7264 6.97298 17.9913V17.1276C7.21623 17.3394 7.54503 17.5307 7.95245 17.6939C8.83184 18.0456 9.99596 18.2393 11.2301 18.2393C12.4643 18.2393 13.6285 18.0454 14.5078 17.6939C14.9154 17.5307 15.2444 17.3394 15.4872 17.1276L15.4876 17.9913ZM15.4876 16.1891C15.4876 16.9242 13.7392 17.7434 11.2303 17.7434C8.72143 17.7434 6.97298 16.9242 6.97298 16.1891V15.3256C7.21623 15.5373 7.54503 15.7286 7.95245 15.8917C8.83184 16.2435 9.99596 16.4371 11.2301 16.4371C12.4643 16.4371 13.6285 16.2434 14.5078 15.8917C14.9154 15.7286 15.2444 15.5373 15.4872 15.3256L15.4876 16.1891ZM15.4876 14.3871C15.4876 15.1222 13.7392 15.9412 11.2303 15.9412C8.72143 15.9412 6.97298 15.1222 6.97298 14.3871V13.5235C7.21623 13.7353 7.54503 13.9266 7.95245 14.0896C8.83184 14.4413 9.99596 14.635 11.2301 14.635C12.4643 14.635 13.6285 14.4413 14.5078 14.0896C14.9154 13.9266 15.2444 13.7353 15.4872 13.5235L15.4876 14.3871ZM11.2303 14.1392C8.72143 14.1392 6.97298 13.3201 6.97298 12.5851C6.97298 11.85 8.72143 11.031 11.2303 11.031C13.7392 11.031 15.4876 11.85 15.4876 12.5851C15.4876 13.3201 13.739 14.1392 11.2301 14.1392H11.2303Z" fill="#777777"/>
<path d="M17.9545 2.25303C17.9545 2.11615 17.8434 2.0051 17.7066 2.0051C17.5697 2.0051 17.4586 2.11615 17.4586 2.25303V2.69225L15.7657 1.45984C15.6787 1.39657 15.5609 1.39657 15.4739 1.45984L12.5813 3.56566C12.4944 3.62894 12.4583 3.7408 12.4914 3.84298C12.5246 3.94499 12.6199 4.01408 12.7272 4.01408H13.3264V7.18266C13.3264 7.31954 13.4374 7.43059 13.5743 7.43059H17.6652C17.8021 7.43059 17.9132 7.31954 17.9132 7.18266V4.01408H18.5123C18.6197 4.01408 18.7149 3.94499 18.7482 3.84298C18.7813 3.7408 18.7451 3.62894 18.6583 3.56566L17.9545 3.05333V2.25303ZM16.053 6.93489H15.1867V6.25032H16.0528L16.053 6.93489ZM17.6652 3.51821C17.5284 3.51821 17.4173 3.62926 17.4173 3.76614V6.93472H16.5487V6.00239C16.5487 5.86535 16.4377 5.75446 16.3008 5.75446H14.9388C14.8019 5.75446 14.6908 5.86535 14.6908 6.00239V6.93472H13.8222V3.76614C13.8222 3.62926 13.7112 3.51821 13.5743 3.51821H13.4889L15.6198 1.96701L17.7505 3.51821H17.6652Z" fill="#777777"/>
</g>
<defs>
<clipPath id="clip0">
<rect width="20" height="20" fill="white"/>
</clipPath>
</defs>
</svg>
