<svg width="20" height="20" viewBox="0 0 20 20" fill="none" xmlns="http://www.w3.org/2000/svg">
<path d="M7.66675 7.16663H9.00008V7.83329H7.66675V7.16663Z" fill="#777777"/>
<path d="M9.66675 7.16663H11.0001V7.83329H9.66675V7.16663Z" fill="#777777"/>
<path d="M11.6667 7.16663H13.0001V7.83329H11.6667V7.16663Z" fill="#777777"/>
<path d="M7.66675 8.5H9.00008V9.16667H7.66675V8.5Z" fill="#777777"/>
<path d="M9.66675 8.5H11.0001V9.16667H9.66675V8.5Z" fill="#777777"/>
<path d="M11.6667 8.5H13.0001V9.16667H11.6667V8.5Z" fill="#777777"/>
<path d="M7.66675 9.83337H9.00008V10.5H7.66675V9.83337Z" fill="#777777"/>
<path d="M9.66675 9.83337H11.0001V10.5H9.66675V9.83337Z" fill="#777777"/>
<path d="M11.6667 9.83337H13.0001V10.5H11.6667V9.83337Z" fill="#777777"/>
<path d="M7.66675 3.16663H9.00008V3.83329H7.66675V3.16663Z" fill="#777777"/>
<path d="M9.66675 3.16663H11.0001V3.83329H9.66675V3.16663Z" fill="#777777"/>
<path d="M11.6667 3.16663H13.0001V3.83329H11.6667V3.16663Z" fill="#777777"/>
<path d="M7.66675 4.5H9.00008V5.16667H7.66675V4.5Z" fill="#777777"/>
<path d="M9.66675 4.5H11.0001V5.16667H9.66675V4.5Z" fill="#777777"/>
<path d="M11.6667 4.5H13.0001V5.16667H11.6667V4.5Z" fill="#777777"/>
<path d="M7.66675 5.83337H9.00008V6.50004H7.66675V5.83337Z" fill="#777777"/>
<path d="M9.66675 5.83337H11.0001V6.50004H9.66675V5.83337Z" fill="#777777"/>
<path d="M11.6667 5.83337H13.0001V6.50004H11.6667V5.83337Z" fill="#777777"/>
<path d="M7.66675 11.1666H9.00008V11.8333H7.66675V11.1666Z" fill="#777777"/>
<path d="M11.6667 11.1666H13.0001V11.8333H11.6667V11.1666Z" fill="#777777"/>
<path d="M11.6667 12.51H13.0001V13.1767H11.6667V12.51Z" fill="#777777"/>
<path d="M11.6667 13.85H13.0001V14.5166H11.6667V13.85Z" fill="#777777"/>
<path d="M11.6667 15.19H13.0001V15.8567H11.6667V15.19Z" fill="#777777"/>
<path d="M6.5 2.5V18.5M14 2.5V18.5" stroke="black" stroke-width="0.5"/>
<path d="M7.66675 8.5H9.00008V9.16667H7.66675V8.5Z" fill="#777777"/>
<path d="M9.66675 8.5H11.0001V9.16667H9.66675V8.5Z" fill="#777777"/>
<path d="M11.6667 8.5H13.0001V9.16667H11.6667V8.5Z" fill="#777777"/>
<path d="M7.66675 9.83337H9.00008V10.5H7.66675V9.83337Z" fill="#4F4F4F"/>
<path d="M9.66675 9.83337H11.0001V10.5H9.66675V9.83337Z" fill="#4F4F4F"/>
<path d="M9.66675 11.17H11.0001V11.8367H9.66675V11.17Z" fill="#777777"/>
<path d="M9.66675 12.51H11.0001V13.1767H9.66675V12.51Z" fill="#777777"/>
<path d="M9.66675 13.85H11.0001V14.5166H9.66675V13.85Z" fill="#777777"/>
<path d="M9.66675 16H11.0001V18.5H9.66675V16Z" fill="#777777"/>
<path d="M11.6667 9.83337H13.0001V10.5H11.6667V9.83337Z" fill="#4F4F4F"/>
<path d="M7.66675 11.1666H9.00008V11.8333H7.66675V11.1666Z" fill="#777777"/>
<path d="M7.66675 12.51H9.00008V13.1767H7.66675V12.51Z" fill="#777777"/>
<path d="M7.66675 13.85H9.00008V14.5166H7.66675V13.85Z" fill="#777777"/>
<path d="M7.66675 15.19H9.00008V15.8567H7.66675V15.19Z" fill="#777777"/>
<path d="M6.5 2.5V18.5M14 2.5V18.5" stroke="#777777" stroke-width="0.5"/>
<path d="M14.8 2.5H5.7C5.58954 2.5 5.5 2.41046 5.5 2.3V1.2C5.5 1.08954 5.58954 1 5.7 1H14.8C14.9105 1 15 1.08954 15 1.2V2.3C15 2.41046 14.9105 2.5 14.8 2.5Z" stroke="#777777" stroke-width="0.5"/>
<path d="M4 18.5L16.5 18.5" stroke="#777777" stroke-width="0.5"/>
</svg>
