<svg width="2050" height="514" viewBox="0 0 2050 514" fill="none" xmlns="http://www.w3.org/2000/svg">
<path d="M770.261 381.55L793.994 432.38H788.525L780.567 415.659H758.553L750.63 432.38H744.986L768.999 381.55H770.261ZM769.63 392.207L760.866 410.716H778.324L769.63 392.207Z" fill="white"/>
<path d="M877.005 390.068L873.043 393.784C870.204 391.015 867.084 388.876 863.719 387.439C860.318 386.002 857.023 385.301 853.798 385.301C849.802 385.301 845.981 386.282 842.37 388.21C838.724 390.173 835.92 392.838 833.957 396.203C831.958 399.568 830.942 403.109 830.942 406.86C830.942 410.681 831.993 414.292 834.027 417.762C836.095 421.197 838.934 423.897 842.545 425.895C846.191 427.858 850.152 428.84 854.499 428.84C859.722 428.84 864.174 427.367 867.785 424.423C871.396 421.478 873.569 417.657 874.235 412.994H858.005V408.017H879.984C879.914 415.869 877.6 422.109 872.973 426.736C868.311 431.364 862.141 433.677 854.359 433.677C844.929 433.677 837.497 430.452 831.993 424.037C827.752 419.129 825.648 413.415 825.648 406.93C825.648 402.127 826.875 397.64 829.294 393.504C831.713 389.332 835.043 386.107 839.285 383.758C843.492 381.445 848.294 380.253 853.623 380.253C857.934 380.253 862.001 381.024 865.822 382.602C869.643 384.144 873.359 386.633 877.005 390.068V390.068Z" fill="white"/>
<path d="M915.706 381.55H944.801V386.493H920.789V402.443H944.591V407.386H920.789V427.437H944.591V432.38H915.706V381.55Z" fill="white"/>
<path d="M979.682 432.38V381.55H980.768L1014.6 420.426V381.55H1019.71V432.38H1018.56L984.94 393.819V432.38H979.682Z" fill="white"/>
<path d="M1105.39 390.91L1101.39 393.994C1099.19 391.12 1096.52 388.947 1093.4 387.439C1090.32 385.967 1086.92 385.231 1083.2 385.231C1079.17 385.231 1075.42 386.212 1071.95 388.14C1068.48 390.103 1065.81 392.697 1063.92 395.993C1062.03 399.288 1061.05 402.969 1061.05 407.07C1061.05 413.275 1063.18 418.463 1067.43 422.6C1071.7 426.771 1077.03 428.84 1083.52 428.84C1090.63 428.84 1096.59 426.07 1101.39 420.496L1105.39 423.546C1102.87 426.771 1099.71 429.26 1095.93 431.013C1092.1 432.766 1087.9 433.677 1083.2 433.677C1074.3 433.677 1067.28 430.697 1062.13 424.773C1057.86 419.795 1055.68 413.731 1055.68 406.649C1055.68 399.218 1058.28 392.978 1063.5 387.895C1068.72 382.812 1075.28 380.253 1083.13 380.253C1087.9 380.253 1092.17 381.199 1096 383.057C1099.82 384.95 1102.97 387.544 1105.39 390.91V390.91Z" fill="white"/>
<path d="M1140.9 381.55H1146.02V432.38H1140.9V381.55Z" fill="white"/>
<path d="M1204.46 381.55L1228.19 432.38H1222.72L1214.76 415.659H1192.75L1184.83 432.38H1179.18L1203.19 381.55H1204.46V381.55ZM1203.83 392.207L1195.06 410.716H1212.52L1203.83 392.207Z" fill="white"/>
<path d="M1306.22 381.55H1311.34V432.38H1306.22V381.55Z" fill="white"/>
<path d="M1349.02 432.38V381.55H1350.15L1383.94 420.426V381.55H1389.06V432.38H1387.9L1354.28 393.819V432.38H1349.02Z" fill="white"/>
<path d="M1425.17 432.38L1432.21 381.55H1433.26L1453.98 423.266L1474.52 381.55H1475.29L1482.62 432.38H1477.68L1472.59 395.993L1454.58 432.38H1453.24L1435.05 395.712L1430.18 432.38H1425.17Z" fill="white"/>
<path d="M1542.74 380.253C1550.42 380.253 1556.87 382.847 1562.06 387.965C1567.24 393.118 1569.84 399.428 1569.84 406.93C1569.84 414.397 1567.24 420.707 1562.06 425.895C1556.9 431.083 1550.59 433.677 1543.13 433.677C1535.59 433.677 1529.24 431.083 1524.06 425.93C1518.87 420.777 1516.27 414.502 1516.27 407.175C1516.27 402.303 1517.47 397.78 1519.81 393.609C1522.2 389.437 1525.42 386.177 1529.49 383.793C1533.56 381.445 1537.97 380.253 1542.74 380.253V380.253ZM1542.95 385.231C1539.2 385.231 1535.62 386.212 1532.26 388.14C1528.89 390.103 1526.26 392.733 1524.37 396.063C1522.48 399.393 1521.53 403.074 1521.53 407.175C1521.53 413.205 1523.6 418.323 1527.81 422.459C1531.98 426.631 1537.06 428.699 1542.95 428.699C1546.91 428.699 1550.56 427.753 1553.89 425.825C1557.25 423.932 1559.88 421.303 1561.78 417.972C1563.63 414.677 1564.58 410.996 1564.58 406.93C1564.58 402.899 1563.63 399.253 1561.78 395.993C1559.88 392.733 1557.22 390.103 1553.82 388.14C1550.42 386.212 1546.77 385.231 1542.95 385.231V385.231Z" fill="white"/>
<path d="M1606.19 381.55H1616.22C1620.25 381.55 1623.37 382.006 1625.51 382.952C1627.68 383.934 1629.4 385.406 1630.66 387.369C1631.92 389.332 1632.55 391.541 1632.55 393.959C1632.55 396.238 1631.99 398.271 1630.9 400.129C1629.78 401.987 1628.17 403.495 1626.07 404.651C1628.7 405.528 1630.73 406.579 1632.13 407.806C1633.57 408.998 1634.66 410.471 1635.46 412.188C1636.23 413.906 1636.65 415.764 1636.65 417.797C1636.65 421.864 1635.18 425.334 1632.17 428.138C1629.19 430.978 1625.19 432.38 1620.18 432.38H1606.19V381.55V381.55ZM1611.17 386.493V402.793H1614.08C1617.62 402.793 1620.21 402.443 1621.9 401.812C1623.54 401.146 1624.88 400.094 1625.82 398.692C1626.8 397.255 1627.29 395.677 1627.29 393.959C1627.29 391.646 1626.49 389.823 1624.88 388.491C1623.23 387.159 1620.63 386.493 1617.06 386.493H1611.17V386.493ZM1611.17 407.876V427.437H1617.48C1621.19 427.437 1623.93 427.052 1625.65 426.351C1627.4 425.614 1628.77 424.458 1629.82 422.915C1630.87 421.373 1631.4 419.69 1631.4 417.902C1631.4 415.624 1630.66 413.661 1629.19 411.978C1627.71 410.295 1625.68 409.138 1623.09 408.507C1621.37 408.087 1618.36 407.876 1614.04 407.876H1611.17V407.876Z" fill="white"/>
<path d="M1672.02 381.55H1677.14V432.38H1672.02V381.55Z" fill="white"/>
<path d="M1714.76 381.55H1719.88V427.437H1739.47V432.38H1714.76V381.55Z" fill="white"/>
<path d="M1772.77 381.55H1777.89V432.38H1772.77V381.55Z" fill="white"/>
<path d="M1836.33 381.55L1860.06 432.38H1854.59L1846.64 415.659H1824.62L1816.7 432.38H1811.05L1835.07 381.55H1836.33V381.55ZM1835.7 392.207L1826.93 410.716H1844.39L1835.7 392.207Z" fill="white"/>
<path d="M1894.21 381.55H1904.34C1910.02 381.55 1913.84 381.76 1915.83 382.216C1918.88 382.917 1921.34 384.389 1923.23 386.668C1925.12 388.947 1926.07 391.751 1926.07 395.046C1926.07 397.816 1925.4 400.234 1924.11 402.338C1922.81 404.441 1920.95 406.019 1918.5 407.105C1916.08 408.157 1912.75 408.718 1908.47 408.718L1926.77 432.38H1920.53L1902.23 408.718H1899.29V432.38H1894.21V381.55V381.55ZM1899.29 386.493V403.775L1908.09 403.845C1911.49 403.845 1914.01 403.53 1915.62 402.864C1917.27 402.233 1918.53 401.216 1919.45 399.779C1920.36 398.376 1920.81 396.799 1920.81 395.011C1920.81 393.328 1920.36 391.786 1919.45 390.384C1918.5 388.982 1917.31 388 1915.8 387.404C1914.29 386.773 1911.8 386.493 1908.3 386.493H1899.29V386.493Z" fill="white"/>
<path d="M1962.21 381.55H1967.33V432.38H1962.21V381.55Z" fill="white"/>
<path d="M2025.77 381.55L2049.5 432.38H2044.03L2036.07 415.659H2014.06L2006.14 432.38H2000.49L2024.51 381.55H2025.77V381.55ZM2025.14 392.207L2016.37 410.716H2033.83L2025.14 392.207Z" fill="white"/>
<path fill-rule="evenodd" clip-rule="evenodd" d="M278.189 439.882C292.772 449.592 367.65 473.079 388.719 476.935L392.119 476.76C392.294 476.375 392.505 475.463 392.575 475.674C393.662 478.478 393.346 473.991 393.486 473.675C393.626 473.325 394.573 470.836 394.573 470.836C395.73 467.295 395.484 467.26 396.221 463.299L423.283 337.17C433.94 295.559 441.793 239.821 452.59 196.002L478.671 68.3654C480.388 57.2178 486.804 34.6772 487.364 25.7731C483.368 23.4244 347.774 -0.483324 344.829 0.00745136C337.573 1.3045 342.13 4.95026 339.817 16.7289C338.905 21.286 336.872 28.6126 336.241 33.3801C331.719 67.7694 327.372 113.412 321.307 146.118C319.099 157.967 318.293 171.603 316.4 183.031L278.189 439.882V439.882Z" fill="#FEC800"/>
<path fill-rule="evenodd" clip-rule="evenodd" d="M377.15 474.972C382.023 479.389 382.058 476.48 389.28 478.303C393.872 479.459 388.123 478.969 395.204 480.09C397.307 480.406 400.813 480.441 403.056 480.546C422.197 481.493 460.126 492.605 491.08 489.59L524.979 409.209C532.305 391.541 619.032 175.389 621.661 164.347L490.905 117.478C487.96 120.563 438.848 278.522 433.695 295.945L380.621 470.906C378.202 476.795 381.217 473.535 377.15 474.972V474.972Z" fill="#DC291A"/>
<path fill-rule="evenodd" clip-rule="evenodd" d="M187.396 429.611C192.619 430.733 190.796 430.838 195.038 429.576C198.649 428.489 192.935 428.068 202.189 427.753C206.326 427.578 215.335 427.332 219.156 427.858C222.381 428.244 228.411 430.733 231.951 431.924L249.128 439.496C249.409 439.637 249.724 439.847 250.04 439.952C257.261 442.897 251.687 437.463 263.431 444.965L280.433 452.817C289.617 456.814 287.97 457.83 295.892 457.971C297.47 424.563 305.392 124.419 301.922 115.725C293.859 112.009 187.676 116.216 169.202 116.286C168.781 131.745 176.178 249.742 177.791 273.439C179.543 299.52 180.981 325.672 182.208 351.402L187.396 429.611V429.611Z" fill="#00A859"/>
<path fill-rule="evenodd" clip-rule="evenodd" d="M128.187 269.793C37.4991 291.633 -37.9751 314.805 86.4013 380.428C214.003 447.805 315.663 460.495 454.973 482.439C488.451 485.594 724.759 501.79 683.219 411.452L672.772 392.382C689.494 406.334 707.617 420.777 700.326 446.508C674.174 538.423 417.008 511.465 344.829 501.65C258.102 489.871 39.988 424.843 4.37179 338.923C-24.3385 269.758 96.5674 269.443 128.187 269.793Z" fill="#00AFEF"/>
<path fill-rule="evenodd" clip-rule="evenodd" d="M148.695 380.954C262.414 429.751 540.719 529.343 661.344 459.057C708.879 431.399 670.669 397.114 643.746 369.982C684.34 396.483 721.85 435.114 668.32 470.38C544.61 551.919 256.946 457.69 136.005 409.209C128.187 405.703 124.717 396.519 128.222 388.736C131.728 380.919 140.877 377.448 148.695 380.954V380.954Z" fill="#3E4095"/>
<path d="M771.348 137.81H877.495V155.864H789.927V213.985H876.724V232.074H789.927V305.164H876.724V323.253H771.348V137.81Z" fill="white"/>
<path d="M911.499 137.81H930.113V305.164H1001.66V323.253H911.499V137.81Z" fill="white"/>
<path d="M1103.53 137.81H1140.52C1161.69 137.81 1176.03 138.686 1183.42 140.544C1194.01 143.174 1202.67 148.502 1209.4 156.635C1216.13 164.733 1219.5 174.934 1219.5 187.203C1219.5 199.578 1216.24 209.744 1209.64 217.771C1203.09 225.799 1194.05 231.162 1182.55 233.967C1174.13 236 1158.43 236.982 1135.36 236.982H1122.11V323.253H1103.53V137.81V137.81ZM1122.11 155.864V218.893L1153.56 219.279C1166.25 219.279 1175.54 218.122 1181.46 215.808C1187.35 213.495 1191.98 209.779 1195.34 204.626C1198.71 199.437 1200.39 193.618 1200.39 187.273C1200.39 181.068 1198.71 175.319 1195.34 170.166C1191.98 165.013 1187.52 161.332 1181.99 159.159C1176.48 156.95 1167.51 155.864 1154.92 155.864H1122.11V155.864Z" fill="white"/>
<path d="M1346.75 133.148C1374.83 133.148 1398.31 142.543 1417.24 161.262C1436.14 179.982 1445.6 203.048 1445.6 230.426C1445.6 257.594 1436.17 280.626 1417.31 299.555C1398.42 318.45 1375.42 327.915 1348.25 327.915C1320.81 327.915 1297.6 318.485 1278.67 299.661C1259.77 280.871 1250.31 258.085 1250.31 231.338C1250.31 213.53 1254.62 197.019 1263.24 181.805C1271.83 166.591 1283.58 154.672 1298.48 146.048C1313.34 137.46 1329.43 133.148 1346.75 133.148V133.148ZM1347.55 151.236C1333.88 151.236 1320.88 154.812 1308.57 161.963C1296.3 169.079 1286.7 178.685 1279.76 190.779C1272.88 202.943 1269.41 216.404 1269.41 231.303C1269.41 253.317 1277.06 271.897 1292.34 287.041C1307.62 302.255 1326.03 309.827 1347.55 309.827C1362 309.827 1375.28 306.356 1387.52 299.38C1399.79 292.404 1409.36 282.834 1416.19 270.74C1423.03 258.646 1426.5 245.22 1426.5 230.391C1426.5 215.668 1423.03 202.382 1416.19 190.498C1409.36 178.614 1399.64 169.079 1387.24 161.963C1374.79 154.812 1361.57 151.236 1347.55 151.236V151.236Z" fill="white"/>
<path d="M1485.81 137.81H1522.83C1543.44 137.81 1557.43 138.651 1564.76 140.334C1575.83 142.823 1584.77 148.221 1591.64 156.53C1598.58 164.803 1602.02 175.004 1602.02 187.098C1602.02 197.159 1599.67 206.028 1594.9 213.635C1590.14 221.312 1583.34 227.096 1574.47 230.987C1565.67 234.913 1553.43 236.912 1537.83 236.982L1604.61 323.253H1581.83L1515.08 236.982H1504.39V323.253H1485.81V137.81V137.81ZM1504.39 155.864V218.893L1536.43 219.174C1548.88 219.174 1558.03 218.017 1563.98 215.633C1569.91 213.249 1574.57 209.533 1577.94 204.345C1581.23 199.192 1582.91 193.408 1582.91 186.993C1582.91 180.788 1581.23 175.109 1577.83 170.026C1574.47 164.943 1570.05 161.332 1564.55 159.159C1559.08 156.95 1549.93 155.864 1537.2 155.864H1504.39Z" fill="white"/>
<path d="M1625.16 155.864V137.81H1726.64V155.864H1685.31V323.253H1666.49V155.864H1625.16Z" fill="white"/>
<path d="M1831.35 137.81L1917.87 323.253H1897.96L1868.97 262.292H1788.58L1759.8 323.253H1739.12L1826.69 137.81H1831.35V137.81ZM1829 176.721L1797.1 244.203H1860.8L1829 176.721V176.721Z" fill="white"/>
<path d="M1948.4 137.81H1966.98V305.164H2038.53V323.253H1948.4V137.81Z" fill="white"/>
<path d="M770.261 381.55L793.994 432.38H788.525L780.567 415.659H758.553L750.63 432.38H744.986L768.999 381.55H770.261ZM769.63 392.207L760.866 410.716H778.324L769.63 392.207Z" fill="white"/>
<path d="M877.005 390.068L873.043 393.784C870.204 391.015 867.084 388.876 863.719 387.439C860.318 386.002 857.023 385.301 853.798 385.301C849.802 385.301 845.981 386.282 842.37 388.21C838.724 390.173 835.92 392.838 833.957 396.203C831.958 399.568 830.942 403.109 830.942 406.86C830.942 410.681 831.993 414.292 834.027 417.762C836.095 421.197 838.934 423.897 842.545 425.895C846.191 427.858 850.152 428.84 854.499 428.84C859.722 428.84 864.174 427.367 867.785 424.423C871.396 421.478 873.569 417.657 874.235 412.994H858.005V408.017H879.984C879.914 415.869 877.6 422.109 872.973 426.736C868.311 431.364 862.141 433.677 854.359 433.677C844.929 433.677 837.497 430.452 831.993 424.037C827.752 419.129 825.648 413.415 825.648 406.93C825.648 402.127 826.875 397.64 829.294 393.504C831.713 389.332 835.043 386.107 839.285 383.758C843.492 381.445 848.294 380.253 853.623 380.253C857.934 380.253 862.001 381.024 865.822 382.602C869.643 384.144 873.359 386.633 877.005 390.068V390.068Z" fill="white"/>
<path d="M915.706 381.55H944.801V386.493H920.789V402.443H944.591V407.386H920.789V427.437H944.591V432.38H915.706V381.55Z" fill="white"/>
<path d="M979.682 432.38V381.55H980.768L1014.6 420.426V381.55H1019.71V432.38H1018.56L984.94 393.819V432.38H979.682Z" fill="white"/>
<path d="M1105.39 390.91L1101.39 393.994C1099.19 391.12 1096.52 388.947 1093.4 387.439C1090.32 385.967 1086.92 385.231 1083.2 385.231C1079.17 385.231 1075.42 386.212 1071.95 388.14C1068.48 390.103 1065.81 392.697 1063.92 395.993C1062.03 399.288 1061.05 402.969 1061.05 407.07C1061.05 413.275 1063.18 418.463 1067.43 422.6C1071.7 426.771 1077.03 428.84 1083.52 428.84C1090.63 428.84 1096.59 426.07 1101.39 420.496L1105.39 423.546C1102.87 426.771 1099.71 429.26 1095.93 431.013C1092.1 432.766 1087.9 433.677 1083.2 433.677C1074.3 433.677 1067.28 430.697 1062.13 424.773C1057.86 419.795 1055.68 413.731 1055.68 406.649C1055.68 399.218 1058.28 392.978 1063.5 387.895C1068.72 382.812 1075.28 380.253 1083.13 380.253C1087.9 380.253 1092.17 381.199 1096 383.057C1099.82 384.95 1102.97 387.544 1105.39 390.91V390.91Z" fill="white"/>
<path d="M1140.9 381.55H1146.02V432.38H1140.9V381.55Z" fill="white"/>
<path d="M1204.46 381.55L1228.19 432.38H1222.72L1214.76 415.659H1192.75L1184.83 432.38H1179.18L1203.19 381.55H1204.46V381.55ZM1203.83 392.207L1195.06 410.716H1212.52L1203.83 392.207Z" fill="white"/>
<path d="M1306.22 381.55H1311.34V432.38H1306.22V381.55Z" fill="white"/>
<path d="M1349.02 432.38V381.55H1350.15L1383.94 420.426V381.55H1389.06V432.38H1387.9L1354.28 393.819V432.38H1349.02Z" fill="white"/>
<path d="M1425.17 432.38L1432.21 381.55H1433.26L1453.98 423.266L1474.52 381.55H1475.29L1482.62 432.38H1477.68L1472.59 395.993L1454.58 432.38H1453.24L1435.05 395.712L1430.18 432.38H1425.17Z" fill="white"/>
<path d="M1542.74 380.253C1550.42 380.253 1556.87 382.847 1562.06 387.965C1567.24 393.118 1569.84 399.428 1569.84 406.93C1569.84 414.397 1567.24 420.707 1562.06 425.895C1556.9 431.083 1550.59 433.677 1543.13 433.677C1535.59 433.677 1529.24 431.083 1524.06 425.93C1518.87 420.777 1516.27 414.502 1516.27 407.175C1516.27 402.303 1517.47 397.78 1519.81 393.609C1522.2 389.437 1525.42 386.177 1529.49 383.793C1533.56 381.445 1537.97 380.253 1542.74 380.253V380.253ZM1542.95 385.231C1539.2 385.231 1535.62 386.212 1532.26 388.14C1528.89 390.103 1526.26 392.733 1524.37 396.063C1522.48 399.393 1521.53 403.074 1521.53 407.175C1521.53 413.205 1523.6 418.323 1527.81 422.459C1531.98 426.631 1537.06 428.699 1542.95 428.699C1546.91 428.699 1550.56 427.753 1553.89 425.825C1557.25 423.932 1559.88 421.303 1561.78 417.972C1563.63 414.677 1564.58 410.996 1564.58 406.93C1564.58 402.899 1563.63 399.253 1561.78 395.993C1559.88 392.733 1557.22 390.103 1553.82 388.14C1550.42 386.212 1546.77 385.231 1542.95 385.231V385.231Z" fill="white"/>
<path d="M1606.19 381.55H1616.22C1620.25 381.55 1623.37 382.006 1625.51 382.952C1627.68 383.934 1629.4 385.406 1630.66 387.369C1631.92 389.332 1632.55 391.541 1632.55 393.959C1632.55 396.238 1631.99 398.271 1630.9 400.129C1629.78 401.987 1628.17 403.495 1626.07 404.651C1628.7 405.528 1630.73 406.579 1632.13 407.806C1633.57 408.998 1634.66 410.471 1635.46 412.188C1636.23 413.906 1636.65 415.764 1636.65 417.797C1636.65 421.864 1635.18 425.334 1632.17 428.138C1629.19 430.978 1625.19 432.38 1620.18 432.38H1606.19V381.55V381.55ZM1611.17 386.493V402.793H1614.08C1617.62 402.793 1620.21 402.443 1621.9 401.812C1623.54 401.146 1624.88 400.094 1625.82 398.692C1626.8 397.255 1627.29 395.677 1627.29 393.959C1627.29 391.646 1626.49 389.823 1624.88 388.491C1623.23 387.159 1620.63 386.493 1617.06 386.493H1611.17V386.493ZM1611.17 407.876V427.437H1617.48C1621.19 427.437 1623.93 427.052 1625.65 426.351C1627.4 425.614 1628.77 424.458 1629.82 422.915C1630.87 421.373 1631.4 419.69 1631.4 417.902C1631.4 415.624 1630.66 413.661 1629.19 411.978C1627.71 410.295 1625.68 409.138 1623.09 408.507C1621.37 408.087 1618.36 407.876 1614.04 407.876H1611.17V407.876Z" fill="white"/>
<path d="M1672.02 381.55H1677.14V432.38H1672.02V381.55Z" fill="white"/>
<path d="M1714.76 381.55H1719.88V427.437H1739.47V432.38H1714.76V381.55Z" fill="white"/>
<path d="M1772.77 381.55H1777.89V432.38H1772.77V381.55Z" fill="white"/>
<path d="M1836.33 381.55L1860.06 432.38H1854.59L1846.64 415.659H1824.62L1816.7 432.38H1811.05L1835.07 381.55H1836.33V381.55ZM1835.7 392.207L1826.93 410.716H1844.39L1835.7 392.207Z" fill="white"/>
<path d="M1894.21 381.55H1904.34C1910.02 381.55 1913.84 381.76 1915.83 382.216C1918.88 382.917 1921.34 384.389 1923.23 386.668C1925.12 388.947 1926.07 391.751 1926.07 395.046C1926.07 397.816 1925.4 400.234 1924.11 402.338C1922.81 404.441 1920.95 406.019 1918.5 407.105C1916.08 408.157 1912.75 408.718 1908.47 408.718L1926.77 432.38H1920.53L1902.23 408.718H1899.29V432.38H1894.21V381.55V381.55ZM1899.29 386.493V403.775L1908.09 403.845C1911.49 403.845 1914.01 403.53 1915.62 402.864C1917.27 402.233 1918.53 401.216 1919.45 399.779C1920.36 398.376 1920.81 396.799 1920.81 395.011C1920.81 393.328 1920.36 391.786 1919.45 390.384C1918.5 388.982 1917.31 388 1915.8 387.404C1914.29 386.773 1911.8 386.493 1908.3 386.493H1899.29V386.493Z" fill="white"/>
<path d="M1962.21 381.55H1967.33V432.38H1962.21V381.55Z" fill="white"/>
<path d="M2025.77 381.55L2049.5 432.38H2044.03L2036.07 415.659H2014.06L2006.14 432.38H2000.49L2024.51 381.55H2025.77V381.55ZM2025.14 392.207L2016.37 410.716H2033.83L2025.14 392.207Z" fill="white"/>
<path fill-rule="evenodd" clip-rule="evenodd" d="M278.189 439.882C292.772 449.592 367.65 473.079 388.719 476.935L392.119 476.76C392.294 476.375 392.505 475.463 392.575 475.674C393.662 478.478 393.346 473.991 393.486 473.675C393.626 473.325 394.573 470.836 394.573 470.836C395.73 467.295 395.484 467.26 396.221 463.299L423.283 337.17C433.94 295.559 441.793 239.821 452.59 196.002L478.671 68.3654C480.388 57.2178 486.804 34.6772 487.364 25.7731C483.368 23.4244 347.774 -0.483324 344.829 0.00745136C337.573 1.3045 342.13 4.95026 339.817 16.7289C338.905 21.286 336.872 28.6126 336.241 33.3801C331.719 67.7694 327.372 113.412 321.307 146.118C319.099 157.967 318.293 171.603 316.4 183.031L278.189 439.882V439.882Z" fill="#FEC800"/>
<path fill-rule="evenodd" clip-rule="evenodd" d="M377.15 474.972C382.023 479.389 382.058 476.48 389.28 478.303C393.872 479.459 388.123 478.969 395.204 480.09C397.307 480.406 400.813 480.441 403.056 480.546C422.197 481.493 460.126 492.605 491.08 489.59L524.979 409.209C532.305 391.541 619.032 175.389 621.661 164.347L490.905 117.478C487.96 120.563 438.848 278.522 433.695 295.945L380.621 470.906C378.202 476.795 381.217 473.535 377.15 474.972V474.972Z" fill="#DC291A"/>
<path fill-rule="evenodd" clip-rule="evenodd" d="M187.396 429.611C192.619 430.733 190.796 430.838 195.038 429.576C198.649 428.489 192.935 428.068 202.189 427.753C206.326 427.578 215.335 427.332 219.156 427.858C222.381 428.244 228.411 430.733 231.951 431.924L249.128 439.496C249.409 439.637 249.724 439.847 250.04 439.952C257.261 442.897 251.687 437.463 263.431 444.965L280.433 452.817C289.617 456.814 287.97 457.83 295.892 457.971C297.47 424.563 305.392 124.419 301.922 115.725C293.859 112.009 187.676 116.216 169.202 116.286C168.781 131.745 176.178 249.742 177.791 273.439C179.543 299.52 180.981 325.672 182.208 351.402L187.396 429.611V429.611Z" fill="#00A859"/>
<path fill-rule="evenodd" clip-rule="evenodd" d="M128.187 269.793C37.4991 291.633 -37.9751 314.805 86.4013 380.428C214.003 447.805 315.663 460.495 454.973 482.439C488.451 485.594 724.759 501.79 683.219 411.452L672.772 392.382C689.494 406.334 707.617 420.777 700.326 446.508C674.174 538.423 417.008 511.465 344.829 501.65C258.102 489.871 39.988 424.843 4.37179 338.923C-24.3385 269.758 96.5674 269.443 128.187 269.793Z" fill="#00AFEF"/>
<path fill-rule="evenodd" clip-rule="evenodd" d="M148.695 380.954C262.414 429.751 540.719 529.343 661.344 459.057C708.879 431.399 670.669 397.114 643.746 369.982C684.34 396.483 721.85 435.114 668.32 470.38C544.61 551.919 256.946 457.69 136.005 409.209C128.187 405.703 124.717 396.519 128.222 388.736C131.728 380.919 140.877 377.448 148.695 380.954V380.954Z" fill="#3E4095"/>
<path d="M771.348 137.81H877.495V155.864H789.927V213.985H876.724V232.074H789.927V305.164H876.724V323.253H771.348V137.81Z" fill="white"/>
<path d="M911.499 137.81H930.113V305.164H1001.66V323.253H911.499V137.81Z" fill="white"/>
<path d="M1103.53 137.81H1140.52C1161.69 137.81 1176.03 138.686 1183.42 140.544C1194.01 143.174 1202.67 148.502 1209.4 156.635C1216.13 164.733 1219.5 174.934 1219.5 187.203C1219.5 199.578 1216.24 209.744 1209.64 217.771C1203.09 225.799 1194.05 231.162 1182.55 233.967C1174.13 236 1158.43 236.982 1135.36 236.982H1122.11V323.253H1103.53V137.81V137.81ZM1122.11 155.864V218.893L1153.56 219.279C1166.25 219.279 1175.54 218.122 1181.46 215.808C1187.35 213.495 1191.98 209.779 1195.34 204.626C1198.71 199.437 1200.39 193.618 1200.39 187.273C1200.39 181.068 1198.71 175.319 1195.34 170.166C1191.98 165.013 1187.52 161.332 1181.99 159.159C1176.48 156.95 1167.51 155.864 1154.92 155.864H1122.11V155.864Z" fill="white"/>
<path d="M1346.75 133.148C1374.83 133.148 1398.31 142.543 1417.24 161.262C1436.14 179.982 1445.6 203.048 1445.6 230.426C1445.6 257.594 1436.17 280.626 1417.31 299.555C1398.42 318.45 1375.42 327.915 1348.25 327.915C1320.81 327.915 1297.6 318.485 1278.67 299.661C1259.77 280.871 1250.31 258.085 1250.31 231.338C1250.31 213.53 1254.62 197.019 1263.24 181.805C1271.83 166.591 1283.58 154.672 1298.48 146.048C1313.34 137.46 1329.43 133.148 1346.75 133.148V133.148ZM1347.55 151.236C1333.88 151.236 1320.88 154.812 1308.57 161.963C1296.3 169.079 1286.7 178.685 1279.76 190.779C1272.88 202.943 1269.41 216.404 1269.41 231.303C1269.41 253.317 1277.06 271.897 1292.34 287.041C1307.62 302.255 1326.03 309.827 1347.55 309.827C1362 309.827 1375.28 306.356 1387.52 299.38C1399.79 292.404 1409.36 282.834 1416.19 270.74C1423.03 258.646 1426.5 245.22 1426.5 230.391C1426.5 215.668 1423.03 202.382 1416.19 190.498C1409.36 178.614 1399.64 169.079 1387.24 161.963C1374.79 154.812 1361.57 151.236 1347.55 151.236V151.236Z" fill="white"/>
<path d="M1485.81 137.81H1522.83C1543.44 137.81 1557.43 138.651 1564.76 140.334C1575.83 142.823 1584.77 148.221 1591.64 156.53C1598.58 164.803 1602.02 175.004 1602.02 187.098C1602.02 197.159 1599.67 206.028 1594.9 213.635C1590.14 221.312 1583.34 227.096 1574.47 230.987C1565.67 234.913 1553.43 236.912 1537.83 236.982L1604.61 323.253H1581.83L1515.08 236.982H1504.39V323.253H1485.81V137.81V137.81ZM1504.39 155.864V218.893L1536.43 219.174C1548.88 219.174 1558.03 218.017 1563.98 215.633C1569.91 213.249 1574.57 209.533 1577.94 204.345C1581.23 199.192 1582.91 193.408 1582.91 186.993C1582.91 180.788 1581.23 175.109 1577.83 170.026C1574.47 164.943 1570.05 161.332 1564.55 159.159C1559.08 156.95 1549.93 155.864 1537.2 155.864H1504.39Z" fill="white"/>
<path d="M1625.16 155.864V137.81H1726.64V155.864H1685.31V323.253H1666.49V155.864H1625.16Z" fill="white"/>
<path d="M1831.35 137.81L1917.87 323.253H1897.96L1868.97 262.292H1788.58L1759.8 323.253H1739.12L1826.69 137.81H1831.35V137.81ZM1829 176.721L1797.1 244.203H1860.8L1829 176.721V176.721Z" fill="white"/>
<path d="M1948.4 137.81H1966.98V305.164H2038.53V323.253H1948.4V137.81Z" fill="white"/>
</svg>
