<svg width="20" height="20" viewBox="0 0 20 20" fill="none" xmlns="http://www.w3.org/2000/svg">
<path d="M4.31908 10.7804L13.2193 19.6805C13.4252 19.8865 13.7 20 13.993 20C14.286 20 14.5608 19.8865 14.7666 19.6805L15.4221 19.0252C15.8486 18.5982 15.8486 17.9042 15.4221 17.4779L7.94832 10.0041L15.4304 2.52209C15.6362 2.31608 15.7499 2.04145 15.7499 1.7486C15.7499 1.45543 15.6362 1.1808 15.4304 0.974625L14.7749 0.319509C14.5689 0.113494 14.2943 -4.75763e-07 14.0013 -4.75763e-07C13.7083 -4.75763e-07 13.4335 0.113494 13.2276 0.319509L4.31908 9.22773C4.11274 9.43439 3.9994 9.71033 4.00006 10.0037C3.9994 10.2981 4.11274 10.5739 4.31908 10.7804Z" fill="white"/>
</svg>
