<svg width="20" height="20" viewBox="0 0 20 20" fill="none" xmlns="http://www.w3.org/2000/svg">
<path d="M12.309 5.78454C12.3089 5.3279 12.1734 4.88153 11.9197 4.50187C11.666 4.12221 11.3053 3.82633 10.8834 3.65162C10.4615 3.47691 9.99729 3.43123 9.54943 3.52036C9.10157 3.60948 8.69019 3.82941 8.36731 4.15233C8.04444 4.47524 7.82457 4.88665 7.73551 5.33453C7.64644 5.7824 7.69218 6.24663 7.86695 6.66851C8.04171 7.09039 8.33765 7.45097 8.71734 7.70466C9.09703 7.95835 9.54342 8.09376 10.0001 8.09376C10.6123 8.09301 11.1991 7.84947 11.632 7.41656C12.0648 6.98365 12.3083 6.39673 12.309 5.78454ZM8.23804 5.78454C8.2381 5.43606 8.34149 5.09542 8.53514 4.8057C8.7288 4.51597 9.00401 4.29018 9.32598 4.15686C9.64796 4.02355 10.0022 3.9887 10.344 4.05672C10.6858 4.12475 10.9997 4.29259 11.2461 4.53902C11.4925 4.78546 11.6603 5.09942 11.7283 5.44122C11.7962 5.78301 11.7613 6.13728 11.6279 6.45923C11.4946 6.78118 11.2687 7.05635 10.979 7.24995C10.6892 7.44355 10.3485 7.54688 10.0001 7.54688C9.53286 7.54635 9.08494 7.36049 8.75461 7.03009C8.42427 6.6997 8.23849 6.25175 8.23804 5.78454Z" fill="#777777"/>
<path d="M19.27 18.917L17.041 13.0733C17.0212 13.0215 16.9862 12.977 16.9406 12.9456C16.895 12.9142 16.8409 12.8973 16.7855 12.8973H12.5667C12.5925 12.8553 12.6182 12.8145 12.6439 12.7723C14.2672 10.0848 15.0841 7.73389 15.0724 5.78576C15.0726 4.44045 14.5384 3.15015 13.5873 2.19871C12.6362 1.24727 11.346 0.71263 10.0007 0.712402C8.65542 0.712174 7.36512 1.24638 6.41368 2.1975C5.46224 3.14861 4.9276 4.43873 4.92737 5.78404C4.91566 7.73389 5.73253 10.0851 7.35581 12.7723C7.38159 12.815 7.40722 12.8558 7.433 12.8973H3.21425C3.15886 12.8973 3.10479 12.9142 3.05917 12.9456C3.01356 12.977 2.97855 13.0215 2.95878 13.0733L0.73003 18.917C0.714149 18.9584 0.708588 19.0031 0.713827 19.0471C0.719066 19.0911 0.734948 19.1332 0.7601 19.1697C0.785252 19.2063 0.818918 19.2361 0.858189 19.2567C0.89746 19.2773 0.941155 19.288 0.985498 19.2879H19.0146C19.0589 19.288 19.1026 19.2773 19.1419 19.2567C19.1811 19.2361 19.2148 19.2063 19.24 19.1697C19.2651 19.1332 19.281 19.0911 19.2862 19.0471C19.2915 19.0031 19.2859 18.9584 19.27 18.917ZM5.4744 5.78451C5.47451 5.1902 5.59167 4.60172 5.8192 4.05269C6.04673 3.50365 6.38017 3.00481 6.80048 2.58464C7.2208 2.16447 7.71976 1.8312 8.26887 1.60386C8.81798 1.37652 9.4065 1.25957 10.0008 1.25967C10.5951 1.25977 11.1836 1.37693 11.7326 1.60446C12.2817 1.83199 12.7805 2.16543 13.2007 2.58575C13.6209 3.00606 13.9541 3.50502 14.1815 4.05413C14.4088 4.60325 14.5258 5.19176 14.5257 5.78607C14.5491 9.67014 10.9178 14.4606 10 15.6094C9.08222 14.4611 5.45081 9.67185 5.4744 5.78451ZM9.79175 16.2187C9.81742 16.2489 9.84934 16.2731 9.8853 16.2898C9.92127 16.3064 9.96041 16.315 10 16.315C10.0396 16.315 10.0788 16.3064 10.1148 16.2898C10.1507 16.2731 10.1826 16.2489 10.2083 16.2187C10.9343 15.3343 11.6074 14.4078 12.2239 13.4439H16.5969L16.9469 14.3619L8.40144 17.4011L5.3555 13.4434H7.77581C8.39248 14.4075 9.06563 15.3342 9.79175 16.2187ZM8.39191 17.9844H8.39347L13.4914 16.1719L15.4688 18.7411H6.26566L8.39191 17.9844ZM3.40284 13.4434H4.66534L7.85941 17.5937L4.63394 18.7409H1.38237L3.40284 13.4434ZM16.1596 18.7411L14.0332 15.9783L17.1425 14.8725L18.618 18.7411H16.1596Z" fill="#777777"/>
</svg>
