<svg width="20" height="20" viewBox="0 0 20 20" fill="none" xmlns="http://www.w3.org/2000/svg">
<path d="M12.9605 12.9581H7.04346C6.97178 12.9581 6.90304 12.9296 6.85235 12.8789C6.80167 12.8282 6.77319 12.7595 6.77319 12.6878C6.77319 12.6161 6.80167 12.5474 6.85235 12.4967C6.90304 12.446 6.97178 12.4175 7.04346 12.4175H12.9605C13.0322 12.4175 13.1009 12.446 13.1516 12.4967C13.2023 12.5474 13.2308 12.6161 13.2308 12.6878C13.2308 12.7595 13.2023 12.8282 13.1516 12.8789C13.1009 12.9296 13.0322 12.9581 12.9605 12.9581Z" fill="#777777"/>
<path d="M18.6393 12.9581H16.5906C16.5189 12.9581 16.4502 12.9296 16.3995 12.879C16.3488 12.8283 16.3203 12.7595 16.3203 12.6878C16.3203 12.6162 16.3488 12.5474 16.3995 12.4967C16.4502 12.446 16.5189 12.4176 16.5906 12.4176H18.6393C18.7134 12.4175 18.7845 12.388 18.837 12.3356C18.8894 12.2831 18.9189 12.212 18.919 12.1378V10.9757C18.9186 10.667 18.8165 10.367 18.6285 10.1223C18.4404 9.87748 18.1769 9.70152 17.8787 9.62163L14.4825 8.72082C14.4332 8.70771 14.3886 8.68092 14.3539 8.64352C14.3303 8.61812 11.979 6.10136 10.6066 5.77866C10.5679 5.76949 10.5282 5.76532 10.4885 5.76622H5.04818C4.76634 5.76677 4.49575 5.87686 4.29359 6.07325L1.36927 8.95379C1.26924 9.05074 1.19183 9.16856 1.14254 9.29885C1.09326 9.42914 1.07331 9.5687 1.08413 9.70757L1.3144 12.1638C1.32069 12.2332 1.35276 12.2977 1.40429 12.3447C1.45583 12.3916 1.52308 12.4175 1.59278 12.4173H3.40818C3.47986 12.4173 3.54861 12.4458 3.59929 12.4965C3.64998 12.5472 3.67845 12.6159 3.67845 12.6876C3.67845 12.7593 3.64998 12.828 3.59929 12.8787C3.54861 12.9294 3.47986 12.9578 3.40818 12.9578H1.59305C1.38855 12.9586 1.19121 12.8826 1.04003 12.7449C0.888848 12.6072 0.794832 12.4177 0.776562 12.2141L0.546022 9.7546C0.528053 9.53621 0.558592 9.31654 0.635453 9.11132C0.712315 8.90611 0.833597 8.72043 0.990617 8.56758L3.91467 5.68785C4.21815 5.39243 4.62466 5.22668 5.04818 5.22568H10.4887C10.5715 5.22435 10.6541 5.23343 10.7347 5.25271C12.1555 5.58676 14.3182 7.81812 14.696 8.2173L18.0179 9.09757C18.4312 9.20848 18.7964 9.45253 19.057 9.79194C19.3177 10.1314 19.4591 10.5472 19.4595 10.9751V12.1373C19.4595 12.3549 19.373 12.5635 19.2192 12.7174C19.0654 12.8713 18.8568 12.9579 18.6393 12.9581Z" fill="#777777"/>
<path d="M14.552 8.72971H1.48658C1.4149 8.72971 1.34615 8.70124 1.29547 8.65055C1.24478 8.59987 1.21631 8.53112 1.21631 8.45945C1.21631 8.38777 1.24478 8.31902 1.29547 8.26834C1.34615 8.21765 1.4149 8.18918 1.48658 8.18918H14.552C14.6237 8.18918 14.6924 8.21765 14.7431 8.26834C14.7938 8.31902 14.8223 8.38777 14.8223 8.45945C14.8223 8.53112 14.7938 8.59987 14.7431 8.65055C14.6924 8.70124 14.6237 8.72971 14.552 8.72971Z" fill="#777777"/>
<path d="M14.7747 14.7743C14.3621 14.7743 13.9587 14.652 13.6156 14.4227C13.2724 14.1934 13.005 13.8676 12.8471 13.4864C12.6892 13.1051 12.6478 12.6856 12.7283 12.2809C12.8088 11.8761 13.0075 11.5044 13.2993 11.2126C13.591 10.9208 13.9628 10.722 14.3675 10.6415C14.7722 10.5609 15.1917 10.6022 15.573 10.7601C15.9543 10.918 16.2801 11.1854 16.5094 11.5284C16.7387 11.8715 16.8611 12.2749 16.8612 12.6876C16.8606 13.2408 16.6406 13.7712 16.2495 14.1624C15.8583 14.5536 15.3279 14.7737 14.7747 14.7743ZM14.7747 11.1416C14.469 11.1416 14.1701 11.2323 13.9158 11.4022C13.6616 11.572 13.4635 11.8135 13.3465 12.096C13.2294 12.3784 13.1988 12.6893 13.2585 12.9892C13.3181 13.289 13.4654 13.5645 13.6816 13.7807C13.8978 13.9969 14.1732 14.1442 14.4731 14.2038C14.773 14.2635 15.0838 14.2328 15.3663 14.1158C15.6488 13.9988 15.8903 13.8007 16.0601 13.5464C16.23 13.2922 16.3207 12.9933 16.3207 12.6876C16.3202 12.2777 16.1572 11.8847 15.8674 11.5949C15.5776 11.3051 15.1846 11.142 14.7747 11.1416Z" fill="#777777"/>
<path d="M14.775 13.6659C14.5815 13.6659 14.3923 13.6086 14.2315 13.5011C14.0706 13.3935 13.9452 13.2407 13.8711 13.062C13.7971 12.8832 13.7777 12.6865 13.8154 12.4967C13.8532 12.3069 13.9464 12.1326 14.0832 11.9958C14.22 11.8589 14.3944 11.7657 14.5841 11.728C14.7739 11.6902 14.9707 11.7096 15.1494 11.7837C15.3282 11.8577 15.481 11.9831 15.5885 12.144C15.696 12.3049 15.7534 12.4941 15.7534 12.6876C15.7531 12.947 15.6499 13.1956 15.4665 13.3791C15.2831 13.5625 15.0344 13.6657 14.775 13.6659ZM14.775 12.2497C14.6884 12.2497 14.6038 12.2754 14.5318 12.3235C14.4598 12.3716 14.4036 12.44 14.3705 12.52C14.3374 12.6 14.3287 12.6881 14.3456 12.773C14.3625 12.8579 14.4042 12.9359 14.4654 12.9972C14.5267 13.0584 14.6047 13.1001 14.6896 13.117C14.7745 13.1339 14.8626 13.1252 14.9426 13.0921C15.0226 13.0589 15.091 13.0028 15.1391 12.9308C15.1872 12.8588 15.2129 12.7742 15.2129 12.6876C15.2126 12.5715 15.1664 12.4603 15.0844 12.3783C15.0023 12.2963 14.891 12.2501 14.775 12.25V12.2497Z" fill="#777777"/>
<path d="M5.2252 13.6659C5.0317 13.6659 4.84254 13.6086 4.68165 13.5011C4.52075 13.3935 4.39535 13.2407 4.3213 13.062C4.24725 12.8832 4.22788 12.6865 4.26563 12.4967C4.30338 12.3069 4.39656 12.1326 4.53339 11.9958C4.67021 11.8589 4.84454 11.7657 5.03433 11.728C5.22412 11.6902 5.42083 11.7096 5.59961 11.7837C5.77838 11.8577 5.93119 11.9831 6.03869 12.144C6.1462 12.3049 6.20358 12.4941 6.20358 12.6876C6.20329 12.947 6.10012 13.1956 5.9167 13.3791C5.73328 13.5625 5.48459 13.6657 5.2252 13.6659ZM5.2252 12.2497C5.13861 12.2497 5.05395 12.2754 4.98195 12.3235C4.90995 12.3716 4.85383 12.44 4.82069 12.52C4.78755 12.6 4.77888 12.6881 4.79578 12.773C4.81267 12.8579 4.85437 12.9359 4.9156 12.9972C4.97684 13.0584 5.05485 13.1001 5.13978 13.117C5.22472 13.1339 5.31275 13.1252 5.39275 13.0921C5.47276 13.0589 5.54114 13.0028 5.58925 12.9308C5.63736 12.8588 5.66304 12.7742 5.66304 12.6876C5.66282 12.5715 5.61662 12.4603 5.53455 12.3783C5.45247 12.2963 5.34123 12.2501 5.2252 12.25V12.2497Z" fill="#777777"/>
<path d="M5.22516 14.7743C4.8125 14.7743 4.40911 14.652 4.066 14.4227C3.72288 14.1934 3.45545 13.8676 3.29752 13.4864C3.13959 13.1051 3.09826 12.6856 3.17874 12.2809C3.25923 11.8761 3.45792 11.5044 3.74969 11.2126C4.04147 10.9208 4.41322 10.722 4.81794 10.6415C5.22266 10.5609 5.64218 10.6022 6.02344 10.7601C6.4047 10.918 6.73058 11.1854 6.95988 11.5284C7.18918 11.8715 7.31159 12.2749 7.31165 12.6876C7.31107 13.2408 7.09107 13.7712 6.69991 14.1624C6.30875 14.5536 5.77838 14.7737 5.22516 14.7743ZM5.22516 11.1416C4.9194 11.1416 4.62051 11.2323 4.36628 11.4022C4.11205 11.572 3.9139 11.8135 3.79689 12.096C3.67988 12.3784 3.64927 12.6893 3.70892 12.9892C3.76857 13.289 3.91581 13.5645 4.13201 13.7807C4.34821 13.9969 4.62368 14.1442 4.92356 14.2038C5.22344 14.2635 5.53428 14.2328 5.81677 14.1158C6.09925 13.9988 6.3407 13.8007 6.51057 13.5464C6.68044 13.2922 6.7711 12.9933 6.7711 12.6876C6.77068 12.2777 6.60766 11.8847 6.31783 11.5949C6.02801 11.3051 5.63504 11.142 5.22516 11.1416Z" fill="#777777"/>
<path d="M8.01905 8.72972C7.94737 8.72972 7.87862 8.70125 7.82794 8.65056C7.77725 8.59988 7.74878 8.53113 7.74878 8.45945V5.49595C7.74878 5.42427 7.77725 5.35552 7.82794 5.30484C7.87862 5.25415 7.94737 5.22568 8.01905 5.22568C8.09073 5.22568 8.15947 5.25415 8.21015 5.30484C8.26084 5.35552 8.28931 5.42427 8.28931 5.49595V8.45945C8.28931 8.53113 8.26084 8.59988 8.21015 8.65056C8.15947 8.70125 8.09073 8.72972 8.01905 8.72972Z" fill="#777777"/>
<path d="M10.2703 10.8108H9.45948C9.3878 10.8108 9.31905 10.7823 9.26837 10.7317C9.21768 10.681 9.18921 10.6122 9.18921 10.5405C9.18921 10.4689 9.21768 10.4001 9.26837 10.3494C9.31905 10.2987 9.3878 10.2703 9.45948 10.2703H10.2703C10.342 10.2703 10.4107 10.2987 10.4614 10.3494C10.5121 10.4001 10.5406 10.4689 10.5406 10.5405C10.5406 10.6122 10.5121 10.681 10.4614 10.7317C10.4107 10.7823 10.342 10.8108 10.2703 10.8108Z" fill="#777777"/>
</svg>
