<svg width="20" height="20" viewBox="0 0 20 20" fill="none" xmlns="http://www.w3.org/2000/svg">
<path d="M18.75 2.8125H17.1875V2.1875C17.1875 1.49824 16.6268 0.9375 15.9375 0.9375C15.2482 0.9375 14.6875 1.49824 14.6875 2.1875V2.8125H5.3125V2.1875C5.3125 1.49824 4.75176 0.9375 4.0625 0.9375C3.37324 0.9375 2.8125 1.49824 2.8125 2.1875V2.8125H1.25C0.560742 2.8125 0 3.37324 0 4.0625V17.8125C0 18.5018 0.560742 19.0625 1.25 19.0625H18.75C19.4393 19.0625 20 18.5018 20 17.8125C20 17.1496 20 4.72277 20 4.0625C20 3.37324 19.4393 2.8125 18.75 2.8125ZM15.3125 2.1875C15.3125 1.84289 15.5929 1.5625 15.9375 1.5625C16.2821 1.5625 16.5625 1.84289 16.5625 2.1875V4.0625C16.5625 4.40711 16.2821 4.6875 15.9375 4.6875C15.5929 4.6875 15.3125 4.40711 15.3125 4.0625V2.1875ZM3.4375 2.1875C3.4375 1.84289 3.71789 1.5625 4.0625 1.5625C4.40711 1.5625 4.6875 1.84289 4.6875 2.1875V4.0625C4.6875 4.40711 4.40711 4.6875 4.0625 4.6875C3.71789 4.6875 3.4375 4.40711 3.4375 4.0625V2.1875ZM0.625 4.0625C0.625 3.71789 0.905391 3.4375 1.25 3.4375H2.8125V4.0625C2.8125 4.75176 3.37324 5.3125 4.0625 5.3125C4.75176 5.3125 5.3125 4.75176 5.3125 4.0625V3.4375H14.6875V4.0625C14.6875 4.75176 15.2482 5.3125 15.9375 5.3125C16.6268 5.3125 17.1875 4.75176 17.1875 4.0625V3.4375H18.75C19.0946 3.4375 19.375 3.71789 19.375 4.0625V5.9375H0.625V4.0625ZM0.625 17.8125V6.5625H19.375V15H17.1875C16.4982 15 15.9375 15.5607 15.9375 16.25V18.4375H1.25C0.905391 18.4375 0.625 18.1571 0.625 17.8125ZM18.9331 15.625L16.5625 17.9956V16.25C16.5625 15.9054 16.8429 15.625 17.1875 15.625H18.9331ZM18.75 18.4375H17.0045L19.375 16.067V17.8125C19.375 18.1571 19.0946 18.4375 18.75 18.4375Z" fill="#777777"/>
<path d="M14.0291 11.2963L11.4387 10.9199L10.2803 8.57265C10.1659 8.34081 9.83431 8.34073 9.71982 8.57265L8.56139 10.9199L5.97104 11.2963C5.71522 11.3335 5.61264 11.6488 5.79784 11.8293L7.67221 13.6564L7.22975 16.2362C7.18608 16.491 7.45424 16.686 7.68314 16.5657L10.0001 15.3476C12.5199 16.6724 12.3522 16.6016 12.4623 16.6016C12.6543 16.6016 12.8033 16.4287 12.7703 16.2362L12.3279 13.6564L14.2022 11.8293C14.3874 11.6489 14.285 11.3335 14.0291 11.2963ZM11.774 13.3235C11.7003 13.3953 11.6667 13.4987 11.6841 13.6001L12.0473 15.7178C9.98795 14.6351 10.1102 14.6821 10.0001 14.6821C9.88986 14.6821 10.0122 14.6351 7.95283 15.7178L8.31603 13.6001C8.33342 13.4987 8.29982 13.3953 8.22615 13.3235L6.68752 11.8237L8.81385 11.5148C8.9156 11.5 9.00361 11.436 9.04912 11.3438L10.0001 9.41702L10.951 11.3438C10.9965 11.436 11.0845 11.5 11.1863 11.5147L13.3126 11.8237L11.774 13.3235Z" fill="#777777"/>
</svg>
