<svg width="20" height="20" viewBox="0 0 20 20" fill="none" xmlns="http://www.w3.org/2000/svg">
<path d="M15.4308 9.2196L6.53055 0.31951C6.3247 0.113495 6.0499 0 5.7569 0C5.46389 0 5.1891 0.113495 4.98324 0.31951L4.3278 0.974789C3.9013 1.40178 3.9013 2.09576 4.3278 2.52209L11.8016 9.99585L4.31951 17.4779C4.11366 17.6839 4 17.9586 4 18.2514C4 18.5446 4.11366 18.8192 4.31951 19.0254L4.97495 19.6805C5.18097 19.8865 5.4556 20 5.7486 20C6.04161 20 6.3164 19.8865 6.52226 19.6805L15.4308 10.7723C15.6371 10.5656 15.7505 10.2897 15.7498 9.99634C15.7505 9.70187 15.6371 9.4261 15.4308 9.2196Z" fill="white"/>
</svg>
