<svg width="20" height="20" viewBox="0 0 20 20" fill="none" xmlns="http://www.w3.org/2000/svg">
<path d="M19.6875 18.9062H0.3125C0.139618 18.9062 0 18.7666 0 18.5938C0 18.4209 0.139618 18.2812 0.3125 18.2812H19.6875C19.8604 18.2812 20 18.4209 20 18.5938C20 18.7666 19.8604 18.9062 19.6875 18.9062Z" fill="#777777"/>
<path d="M2.1875 18.9062C2.01462 18.9062 1.875 18.7666 1.875 18.5938V13.2812C1.875 13.1084 2.01462 12.9688 2.1875 12.9688C2.36038 12.9688 2.5 13.1084 2.5 13.2812V18.5938C2.5 18.7666 2.36038 18.9062 2.1875 18.9062Z" fill="#777777"/>
<path d="M3.4375 13.5938H2.1875C2.01462 13.5938 1.875 13.4541 1.875 13.2812C1.875 13.1084 2.01462 12.9688 2.1875 12.9688H3.4375C3.61038 12.9688 3.75 13.1084 3.75 13.2812C3.75 13.4541 3.61038 13.5938 3.4375 13.5938Z" fill="#777777"/>
<path d="M3.4375 18.9062C3.26462 18.9062 3.125 18.7666 3.125 18.5938V13.2812C3.125 13.1084 3.26462 12.9688 3.4375 12.9688C3.61038 12.9688 3.75 13.1084 3.75 13.2812V18.5938C3.75 18.7666 3.61038 18.9062 3.4375 18.9062Z" fill="#777777"/>
<path d="M4.6875 18.9062C4.51462 18.9062 4.375 18.7666 4.375 18.5938V10.1562C4.375 9.98337 4.51462 9.84375 4.6875 9.84375C4.86038 9.84375 5 9.98337 5 10.1562V18.5938C5 18.7666 4.86038 18.9062 4.6875 18.9062Z" fill="#777777"/>
<path d="M5.9375 10.4688H4.6875C4.51462 10.4688 4.375 10.3291 4.375 10.1562C4.375 9.98337 4.51462 9.84375 4.6875 9.84375H5.9375C6.11038 9.84375 6.25 9.98337 6.25 10.1562C6.25 10.3291 6.11038 10.4688 5.9375 10.4688Z" fill="#777777"/>
<path d="M5.9375 18.9062C5.76462 18.9062 5.625 18.7666 5.625 18.5938V10.1562C5.625 9.98337 5.76462 9.84375 5.9375 9.84375C6.11038 9.84375 6.25 9.98337 6.25 10.1562V18.5938C6.25 18.7666 6.11038 18.9062 5.9375 18.9062Z" fill="#777777"/>
<path d="M7.1875 18.9062C7.01462 18.9062 6.875 18.7666 6.875 18.5938V13.2812C6.875 13.1084 7.01462 12.9688 7.1875 12.9688C7.36038 12.9688 7.5 13.1084 7.5 13.2812V18.5938C7.5 18.7666 7.36038 18.9062 7.1875 18.9062Z" fill="#777777"/>
<path d="M8.4375 13.5938H7.1875C7.01462 13.5938 6.875 13.4541 6.875 13.2812C6.875 13.1084 7.01462 12.9688 7.1875 12.9688H8.4375C8.61038 12.9688 8.75 13.1084 8.75 13.2812C8.75 13.4541 8.61038 13.5938 8.4375 13.5938Z" fill="#777777"/>
<path d="M8.4375 18.9062C8.26462 18.9062 8.125 18.7666 8.125 18.5938V13.2812C8.125 13.1084 8.26462 12.9688 8.4375 12.9688C8.61038 12.9688 8.75 13.1084 8.75 13.2812V18.5938C8.75 18.7666 8.61038 18.9062 8.4375 18.9062Z" fill="#777777"/>
<path d="M9.6875 18.9062C9.51462 18.9062 9.375 18.7666 9.375 18.5938V6.09375C9.375 5.92087 9.51462 5.78125 9.6875 5.78125C9.86038 5.78125 10 5.92087 10 6.09375V18.5938C10 18.7666 9.86038 18.9062 9.6875 18.9062Z" fill="#777777"/>
<path d="M10.9375 6.40625H9.6875C9.51462 6.40625 9.375 6.26663 9.375 6.09375C9.375 5.92087 9.51462 5.78125 9.6875 5.78125H10.9375C11.1104 5.78125 11.25 5.92087 11.25 6.09375C11.25 6.26663 11.1104 6.40625 10.9375 6.40625Z" fill="#777777"/>
<path d="M10.9375 18.9062C10.7646 18.9062 10.625 18.7666 10.625 18.5938V6.09375C10.625 5.92087 10.7646 5.78125 10.9375 5.78125C11.1104 5.78125 11.25 5.92087 11.25 6.09375V18.5938C11.25 18.7666 11.1104 18.9062 10.9375 18.9062Z" fill="#777777"/>
<path d="M12.1875 18.9062C12.0146 18.9062 11.875 18.7666 11.875 18.5938V12.3438C11.875 12.1709 12.0146 12.0312 12.1875 12.0312C12.3604 12.0312 12.5 12.1709 12.5 12.3438V18.5938C12.5 18.7666 12.3604 18.9062 12.1875 18.9062Z" fill="#777777"/>
<path d="M13.4375 12.6562H12.1875C12.0146 12.6562 11.875 12.5166 11.875 12.3438C11.875 12.1709 12.0146 12.0312 12.1875 12.0312H13.4375C13.6104 12.0312 13.75 12.1709 13.75 12.3438C13.75 12.5166 13.6104 12.6562 13.4375 12.6562Z" fill="#777777"/>
<path d="M13.4375 18.9062C13.2646 18.9062 13.125 18.7666 13.125 18.5938V12.3438C13.125 12.1709 13.2646 12.0312 13.4375 12.0312C13.6104 12.0312 13.75 12.1709 13.75 12.3438V18.5938C13.75 18.7666 13.6104 18.9062 13.4375 18.9062Z" fill="#777777"/>
<path d="M14.6875 18.9062C14.5146 18.9062 14.375 18.7666 14.375 18.5938V9.21875C14.375 9.04587 14.5146 8.90625 14.6875 8.90625C14.8604 8.90625 15 9.04587 15 9.21875V18.5938C15 18.7666 14.8604 18.9062 14.6875 18.9062Z" fill="#777777"/>
<path d="M15.9375 9.53125H14.6875C14.5146 9.53125 14.375 9.39163 14.375 9.21875C14.375 9.04587 14.5146 8.90625 14.6875 8.90625H15.9375C16.1104 8.90625 16.25 9.04587 16.25 9.21875C16.25 9.39163 16.1104 9.53125 15.9375 9.53125Z" fill="#777777"/>
<path d="M15.9375 18.9062C15.7646 18.9062 15.625 18.7666 15.625 18.5938V9.21875C15.625 9.04587 15.7646 8.90625 15.9375 8.90625C16.1104 8.90625 16.25 9.04587 16.25 9.21875V18.5938C16.25 18.7666 16.1104 18.9062 15.9375 18.9062Z" fill="#777777"/>
<path d="M17.1875 18.9062C17.0146 18.9062 16.875 18.7666 16.875 18.5938V13.2812C16.875 13.1084 17.0146 12.9688 17.1875 12.9688C17.3604 12.9688 17.5 13.1084 17.5 13.2812V18.5938C17.5 18.7666 17.3604 18.9062 17.1875 18.9062Z" fill="#777777"/>
<path d="M18.4375 13.5938H17.1875C17.0146 13.5938 16.875 13.4541 16.875 13.2812C16.875 13.1084 17.0146 12.9688 17.1875 12.9688H18.4375C18.6104 12.9688 18.75 13.1084 18.75 13.2812C18.75 13.4541 18.6104 13.5938 18.4375 13.5938Z" fill="#777777"/>
<path d="M18.4375 18.9062C18.2646 18.9062 18.125 18.7666 18.125 18.5938V13.2812C18.125 13.1084 18.2646 12.9688 18.4375 12.9688C18.6104 12.9688 18.75 13.1084 18.75 13.2812V18.5938C18.75 18.7666 18.6104 18.9062 18.4375 18.9062Z" fill="#777777"/>
<path d="M6.79074 7.45297C6.79067 7.4529 6.7906 7.45283 6.79052 7.45276L5.51577 6.17805C5.46144 6.1237 5.3892 6.09375 5.31236 6.09375C5.23551 6.09375 5.16327 6.12367 5.10891 6.17803L3.83483 7.45209C3.8344 7.45252 3.83397 7.45297 3.83354 7.4534C3.72197 7.56563 3.72216 7.74771 3.83409 7.85964C3.88523 7.91081 3.95278 7.94044 4.02499 7.94354C4.02793 7.94383 4.03088 7.94397 4.03386 7.94397H4.08467V8.88208C4.08467 9.06771 4.23571 9.21875 4.42139 9.21875H4.92011C4.97066 9.21875 5.01166 9.17777 5.01166 9.1272V8.39172C5.01166 8.30701 5.08057 8.23811 5.16528 8.23811H5.45944C5.54415 8.23811 5.61305 8.30701 5.61305 8.39172V9.1272C5.61305 9.17777 5.65403 9.21875 5.7046 9.21875H6.20332C6.389 9.21875 6.54004 9.06771 6.54004 8.88208V7.94397H6.58715C6.66397 7.94397 6.73621 7.91405 6.7906 7.85969C6.90265 7.74756 6.9027 7.56517 6.79074 7.45297Z" fill="#777777"/>
<path d="M11.7907 3.50766C11.7907 3.50759 11.7906 3.50752 11.7905 3.50745L10.5158 2.23274C10.4614 2.17838 10.3892 2.14844 10.3124 2.14844C10.2355 2.14844 10.1633 2.17836 10.1089 2.23272L8.83483 3.50678C8.8344 3.50721 8.83397 3.50766 8.83354 3.50809C8.72197 3.62031 8.72216 3.80239 8.83409 3.91433C8.88523 3.9655 8.95278 3.99513 9.02499 3.99823C9.02793 3.99852 9.03088 3.99866 9.03386 3.99866H9.08467V4.93677C9.08467 5.1224 9.23571 5.27344 9.42139 5.27344H9.92011C9.97066 5.27344 10.0117 5.23245 10.0117 5.18188V4.44641C10.0117 4.3617 10.0806 4.2928 10.1653 4.2928H10.4594C10.5441 4.2928 10.613 4.3617 10.613 4.44641V5.18188C10.613 5.23245 10.654 5.27344 10.7046 5.27344H11.2033C11.389 5.27344 11.54 5.1224 11.54 4.93677V3.99866H11.5872C11.664 3.99866 11.7362 3.96874 11.7906 3.91438C11.9027 3.80225 11.9027 3.61986 11.7907 3.50766Z" fill="#777777"/>
<path d="M16.7907 6.63266C16.7907 6.63259 16.7906 6.63252 16.7905 6.63245L15.5158 5.35774C15.4614 5.30338 15.3892 5.27344 15.3124 5.27344C15.2355 5.27344 15.1633 5.30336 15.1089 5.35772L13.8348 6.63178C13.8344 6.63221 13.834 6.63266 13.8335 6.63309C13.722 6.74531 13.7222 6.92739 13.8341 7.03933C13.8852 7.0905 13.9528 7.12013 14.025 7.12323C14.0279 7.12352 14.0309 7.12366 14.0339 7.12366H14.0847V8.06177C14.0847 8.2474 14.2357 8.39844 14.4214 8.39844H14.9201C14.9707 8.39844 15.0117 8.35745 15.0117 8.30688V7.57141C15.0117 7.4867 15.0806 7.4178 15.1653 7.4178H15.4594C15.5441 7.4178 15.613 7.4867 15.613 7.57141V8.30688C15.613 8.35745 15.654 8.39844 15.7046 8.39844H16.2033C16.389 8.39844 16.54 8.2474 16.54 8.06177V7.12366H16.5872C16.664 7.12366 16.7362 7.09374 16.7906 7.03938C16.9027 6.92725 16.9027 6.74486 16.7907 6.63266Z" fill="#777777"/>
</svg>
