<svg width="20" height="20" viewBox="0 0 20 20" fill="none" xmlns="http://www.w3.org/2000/svg">
<g clip-path="url(#clip0)">
<path d="M9.99997 13.0645C10.1776 13.0645 10.3225 13.2091 10.3225 13.3871H10.9677C10.9677 12.9672 10.6971 12.6123 10.3225 12.4787V11.7742H9.67739V12.4787C9.30283 12.6123 9.03223 12.9672 9.03223 13.3871C9.03223 13.9206 9.46648 14.3548 9.99997 14.3548C10.1776 14.3548 10.3225 14.4994 10.3225 14.6774C10.3225 14.8554 10.1776 15 9.99997 15C9.8223 15 9.67739 14.8554 9.67739 14.6774H9.03223C9.03223 15.0973 9.30283 15.4522 9.67739 15.5858V16.2903H10.3225V15.5858C10.6971 15.4522 10.9677 15.0973 10.9677 14.6774C10.9677 14.1439 10.5335 13.7097 9.99997 13.7097C9.8223 13.7097 9.67739 13.5651 9.67739 13.3871C9.67739 13.2091 9.8223 13.0645 9.99997 13.0645Z" fill="#777777"/>
<path d="M10 10.4839C8.04361 10.4839 6.45166 12.0758 6.45166 14.0322C6.45166 15.9887 8.04361 17.5806 10 17.5806C11.9565 17.5806 13.5484 15.9887 13.5484 14.0322C13.5484 12.0758 11.9565 10.4839 10 10.4839ZM10 16.9355C8.39943 16.9355 7.09682 15.6332 7.09682 14.0322C7.09682 12.4313 8.39943 11.129 10 11.129C11.6007 11.129 12.9033 12.4313 12.9033 14.0322C12.9033 15.6332 11.6007 16.9355 10 16.9355Z" fill="#777777"/>
<path d="M19.7612 8.51326L18.3871 4.93998V4.35483H19.0323V1.12903H13.871V4.35483H14.5161V4.92392L13.9261 6.10351C13.679 6.59809 13.5484 7.15158 13.5484 7.70444C13.5484 8.21903 13.6668 8.72684 13.8806 9.19354H6.11942C6.33317 8.72684 6.45161 8.21903 6.45161 7.70444C6.45161 7.15158 6.32104 6.59809 6.0739 6.10351L5.48387 4.92392V4.35483H6.12903V1.12903H0.967742V4.35483H1.6129V4.93998L0.238313 8.51357C0.0803301 8.92515 0 9.35735 0 9.79838V10.0739C0 10.6006 0.119393 11.1303 0.344475 11.6061L1.29032 13.6029V18.871H18.7097V13.6029L19.6555 11.6064C19.8806 11.1306 20 10.6006 20 10.0739V9.79838C20 9.35735 19.9197 8.92515 19.7612 8.51326ZM14.5161 1.77419H18.3871V3.70967H14.5161V1.77419ZM1.6129 1.77419H5.48387V3.70967H1.6129V1.77419ZM0.927734 11.33C0.742975 10.9403 0.645161 10.5058 0.645161 10.0739V9.79838C0.645161 9.43674 0.711 9.08218 0.840631 8.7448L2.25806 5.06001V4.35483H4.83871V5.07607L5.49679 6.39191C5.69934 6.79734 5.80645 7.25097 5.80645 7.70413C5.80645 8.20155 5.67871 8.69424 5.43709 9.12928L4.52416 10.7726C4.40193 10.9923 4.16992 11.129 3.91869 11.129C3.53642 11.129 3.22581 10.8184 3.22581 10.4365V10.4013C3.22581 10.2942 3.25132 10.1871 3.29905 10.0914L4.15937 8.3704L3.58225 8.08168L3.0264 9.19354H1.29032V12.0958L0.927734 11.33ZM18.0645 18.2258H1.93548V9.83871H2.7087C2.62711 10.0145 2.58065 10.2071 2.58065 10.401V10.4361C2.58065 11.1742 3.18092 11.7742 3.91869 11.7742C4.40414 11.7742 4.85226 11.5107 5.08805 11.0859L5.78125 9.83871H14.2191L14.912 11.0859C15.1477 11.5107 15.5959 11.7742 16.0813 11.7742C16.8191 11.7742 17.4194 11.1742 17.4194 10.4365V10.4013C17.4194 10.2074 17.3729 10.0148 17.2913 9.83902H18.0645V18.2258ZM19.3548 10.0739C19.3548 10.5058 19.257 10.9403 19.0723 11.3303L18.7097 12.0958V9.19354H16.9736L16.4174 8.08168L15.8403 8.3704L16.7006 10.0914C16.7487 10.1868 16.7742 10.2939 16.7742 10.401V10.4361C16.7742 10.8184 16.4636 11.129 16.0813 11.129C15.8301 11.129 15.5978 10.9923 15.4758 10.7729L14.5629 9.12959C14.3213 8.69455 14.1935 8.20186 14.1935 7.70444C14.1935 7.25129 14.3007 6.79734 14.5032 6.39223L15.1613 5.07607V4.35483H17.7419V5.06001L19.1594 8.7448C19.289 9.08218 19.3548 9.43674 19.3548 9.79838V10.0739Z" fill="#777777"/>
</g>
<defs>
<clipPath id="clip0">
<rect width="20" height="20" fill="white"/>
</clipPath>
</defs>
</svg>
